<svg width="1312" height="216" viewBox="0 0 1312 216" fill="none" xmlns="http://www.w3.org/2000/svg">
<line opacity="0.3" x1="0.5" y1="-2.18557e-08" x2="0.500009" y2="216" stroke="white"/>
<line opacity="0.3" x1="219.5" y1="-2.18557e-08" x2="219.5" y2="216" stroke="white"/>
<path opacity="0.3" d="M438 0L438 214" stroke="white"/>
<path opacity="0.3" d="M657 2L657 216" stroke="white"/>
<path opacity="0.3" d="M876 2L876 216" stroke="white"/>
<path opacity="0.3" d="M1095 2L1095 216" stroke="white"/>
<line opacity="0.3" x1="1311.5" y1="-2.18557e-08" x2="1311.5" y2="216" stroke="white"/>
<path fill-rule="evenodd" clip-rule="evenodd" d="M0 76C0 64.9543 8.9543 56 20 56H242C253.046 56 262 64.9543 262 76C262 87.0457 253.046 96 242 96H20C8.95431 96 0 87.0457 0 76ZM526 140C526 128.954 534.954 120 546 120H768C779.046 120 788 128.954 788 140C788 151.046 779.046 160 768 160H546C534.954 160 526 151.046 526 140ZM808 56C796.954 56 788 64.9543 788 76C788 87.0457 796.954 96 808 96H1030C1041.05 96 1050 87.0457 1050 76C1050 64.9543 1041.05 56 1030 56H808ZM1050 140C1050 128.954 1058.95 120 1070 120H1292C1303.05 120 1312 128.954 1312 140C1312 151.046 1303.05 160 1292 160H1070C1058.95 160 1050 151.046 1050 140ZM283 120C271.954 120 263 128.954 263 140C263 151.046 271.954 160 283 160H505C516.046 160 525 151.046 525 140C525 128.954 516.046 120 505 120H283Z" fill="url(#paint0_linear_32256_84517)"/>
<path class="processText" d="M100.251 4.85C100.755 4.85 101.194 4.86867 101.567 4.906C101.941 4.94333 102.323 5.02733 102.715 5.158C103.117 5.28867 103.443 5.466 103.695 5.69C103.947 5.914 104.153 6.22667 104.311 6.628C104.479 7.02 104.563 7.49133 104.563 8.042C104.563 8.658 104.456 9.18067 104.241 9.61C104.027 10.03 103.714 10.352 103.303 10.576C102.893 10.7907 102.445 10.9447 101.959 11.038C101.483 11.122 100.923 11.164 100.279 11.164H98.6834V15H96.9054V4.85H100.251ZM98.6834 6.278V9.708H100.335C101.119 9.708 101.712 9.60067 102.113 9.386C102.515 9.162 102.715 8.71867 102.715 8.056C102.715 7.664 102.65 7.342 102.519 7.09C102.389 6.838 102.193 6.656 101.931 6.544C101.67 6.432 101.418 6.362 101.175 6.334C100.933 6.29667 100.625 6.278 100.251 6.278H98.6834ZM110.469 10.716C110.357 10.7253 110.18 10.73 109.937 10.73H108.215V15H106.437V4.85H109.671C111.239 4.85 112.383 5.06467 113.101 5.494C113.829 5.92333 114.193 6.684 114.193 7.776C114.193 9.08267 113.559 9.95533 112.289 10.394L114.613 15H112.611L110.469 10.716ZM108.215 6.278V9.316H109.979C110.791 9.316 111.393 9.20867 111.785 8.994C112.177 8.77 112.373 8.36867 112.373 7.79C112.373 7.18333 112.168 6.782 111.757 6.586C111.347 6.38067 110.735 6.278 109.923 6.278H108.215ZM124.332 13.74C123.455 14.7013 122.279 15.182 120.804 15.182C119.329 15.182 118.153 14.7013 117.276 13.74C116.399 12.7693 115.96 11.4953 115.96 9.918C115.96 8.34067 116.399 7.07133 117.276 6.11C118.153 5.14867 119.329 4.668 120.804 4.668C122.279 4.668 123.455 5.14867 124.332 6.11C125.209 7.07133 125.648 8.34067 125.648 9.918C125.648 11.4953 125.209 12.7693 124.332 13.74ZM118.634 12.718C119.203 13.39 119.927 13.726 120.804 13.726C121.681 13.726 122.4 13.39 122.96 12.718C123.529 12.046 123.814 11.1127 123.814 9.918C123.814 8.72333 123.529 7.79467 122.96 7.132C122.4 6.46 121.681 6.124 120.804 6.124C119.927 6.124 119.203 6.46 118.634 7.132C118.074 7.79467 117.794 8.72333 117.794 9.918C117.794 11.1127 118.074 12.046 118.634 12.718ZM130.762 4.85C131.611 4.85 132.362 4.934 133.016 5.102C133.669 5.26067 134.262 5.52667 134.794 5.9C135.326 6.264 135.732 6.78667 136.012 7.468C136.292 8.14 136.432 8.95667 136.432 9.918C136.432 10.8793 136.292 11.7007 136.012 12.382C135.732 13.054 135.326 13.5767 134.794 13.95C134.262 14.3233 133.669 14.594 133.016 14.762C132.362 14.9207 131.611 15 130.762 15H127.99V4.85H130.762ZM130.678 6.278H129.768V13.572H130.678C131.238 13.572 131.718 13.53 132.12 13.446C132.53 13.362 132.936 13.2033 133.338 12.97C133.739 12.7273 134.047 12.3493 134.262 11.836C134.476 11.3227 134.584 10.6833 134.584 9.918C134.584 9.15267 134.476 8.518 134.262 8.014C134.047 7.50067 133.739 7.12733 133.338 6.894C132.936 6.65133 132.53 6.488 132.12 6.404C131.718 6.32 131.238 6.278 130.678 6.278ZM140.376 4.85V10.842C140.376 11.8313 140.544 12.5593 140.88 13.026C141.226 13.4927 141.851 13.726 142.756 13.726C143.643 13.726 144.259 13.4833 144.604 12.998C144.95 12.5127 145.122 11.7753 145.122 10.786V4.85H146.9V10.716C146.9 12.312 146.578 13.4553 145.934 14.146C145.3 14.8367 144.24 15.182 142.756 15.182C141.272 15.182 140.208 14.8507 139.564 14.188C138.92 13.5253 138.598 12.3867 138.598 10.772V4.85H140.376ZM158.071 11.626C157.866 12.7553 157.376 13.6327 156.601 14.258C155.836 14.874 154.865 15.182 153.689 15.182C152.224 15.182 151.076 14.7013 150.245 13.74C149.415 12.7787 148.999 11.4953 148.999 9.89C148.999 8.294 149.429 7.02467 150.287 6.082C151.146 5.13933 152.308 4.668 153.773 4.668C154.912 4.668 155.855 4.98067 156.601 5.606C157.357 6.222 157.838 7.09467 158.043 8.224H156.335C156.186 7.552 155.878 7.034 155.411 6.67C154.954 6.306 154.389 6.124 153.717 6.124C152.877 6.124 152.187 6.45533 151.645 7.118C151.104 7.78067 150.833 8.70467 150.833 9.89C150.833 11.0847 151.099 12.0227 151.631 12.704C152.173 13.3853 152.863 13.726 153.703 13.726C154.403 13.726 154.982 13.5487 155.439 13.194C155.906 12.83 156.214 12.3073 156.363 11.626H158.071ZM162.08 6.334H158.888V4.85H167.05V6.334H163.858V15H162.08V6.334ZM92.8661 24.85C93.7154 24.85 94.4667 24.934 95.1201 25.102C95.7734 25.2607 96.3661 25.5267 96.8981 25.9C97.4301 26.264 97.8361 26.7867 98.1161 27.468C98.3961 28.14 98.5361 28.9567 98.5361 29.918C98.5361 30.8793 98.3961 31.7007 98.1161 32.382C97.8361 33.054 97.4301 33.5767 96.8981 33.95C96.3661 34.3233 95.7734 34.594 95.1201 34.762C94.4667 34.9207 93.7154 35 92.8661 35H90.0941V24.85H92.8661ZM92.7821 26.278H91.8721V33.572H92.7821C93.3421 33.572 93.8227 33.53 94.2241 33.446C94.6347 33.362 95.0407 33.2033 95.4421 32.97C95.8434 32.7273 96.1514 32.3493 96.3661 31.836C96.5807 31.3227 96.6881 30.6833 96.6881 29.918C96.6881 29.1527 96.5807 28.518 96.3661 28.014C96.1514 27.5007 95.8434 27.1273 95.4421 26.894C95.0407 26.6513 94.6347 26.488 94.2241 26.404C93.8227 26.32 93.3421 26.278 92.7821 26.278ZM102.635 35H100.857V24.85H102.635V35ZM107.933 30.394C107.055 30.2167 106.346 29.8947 105.805 29.428C105.273 28.9613 105.007 28.3267 105.007 27.524C105.007 26.628 105.389 25.928 106.155 25.424C106.929 24.92 107.825 24.668 108.843 24.668C109.888 24.668 110.761 24.92 111.461 25.424C112.17 25.9187 112.623 26.6747 112.819 27.692H111.097C110.845 26.6467 110.061 26.124 108.745 26.124C108.269 26.124 107.825 26.236 107.415 26.46C107.004 26.684 106.799 27.02 106.799 27.468C106.799 28.168 107.303 28.616 108.311 28.812L109.557 29.05C110.061 29.1527 110.495 29.2693 110.859 29.4C111.232 29.5213 111.591 29.6987 111.937 29.932C112.291 30.156 112.562 30.45 112.749 30.814C112.935 31.178 113.029 31.6027 113.029 32.088C113.029 33.0493 112.627 33.8053 111.825 34.356C111.022 34.9067 110.079 35.182 108.997 35.182C107.783 35.182 106.794 34.8693 106.029 34.244C105.263 33.6093 104.829 32.7413 104.727 31.64H106.477C106.785 33.0307 107.653 33.726 109.081 33.726C109.706 33.726 110.224 33.5907 110.635 33.32C111.045 33.0493 111.251 32.676 111.251 32.2C111.251 31.416 110.555 30.8933 109.165 30.632L107.933 30.394ZM123.884 31.626C123.678 32.7553 123.188 33.6327 122.414 34.258C121.648 34.874 120.678 35.182 119.502 35.182C118.036 35.182 116.888 34.7013 116.058 33.74C115.227 32.7787 114.812 31.4953 114.812 29.89C114.812 28.294 115.241 27.0247 116.1 26.082C116.958 25.1393 118.12 24.668 119.586 24.668C120.724 24.668 121.667 24.9807 122.414 25.606C123.17 26.222 123.65 27.0947 123.856 28.224H122.148C121.998 27.552 121.69 27.034 121.224 26.67C120.766 26.306 120.202 26.124 119.53 26.124C118.69 26.124 117.999 26.4553 117.458 27.118C116.916 27.7807 116.646 28.7047 116.646 29.89C116.646 31.0847 116.912 32.0227 117.444 32.704C117.985 33.3853 118.676 33.726 119.516 33.726C120.216 33.726 120.794 33.5487 121.252 33.194C121.718 32.83 122.026 32.3073 122.176 31.626H123.884ZM134.151 33.74C133.274 34.7013 132.098 35.182 130.623 35.182C129.148 35.182 127.972 34.7013 127.095 33.74C126.218 32.7693 125.779 31.4953 125.779 29.918C125.779 28.3407 126.218 27.0713 127.095 26.11C127.972 25.1487 129.148 24.668 130.623 24.668C132.098 24.668 133.274 25.1487 134.151 26.11C135.028 27.0713 135.467 28.3407 135.467 29.918C135.467 31.4953 135.028 32.7693 134.151 33.74ZM128.453 32.718C129.022 33.39 129.746 33.726 130.623 33.726C131.5 33.726 132.219 33.39 132.779 32.718C133.348 32.046 133.633 31.1127 133.633 29.918C133.633 28.7233 133.348 27.7947 132.779 27.132C132.219 26.46 131.5 26.124 130.623 26.124C129.746 26.124 129.022 26.46 128.453 27.132C127.893 27.7947 127.613 28.7233 127.613 29.918C127.613 31.1127 127.893 32.046 128.453 32.718ZM138.309 24.85L140.885 32.9L143.391 24.85H145.267L141.795 35H139.891L136.377 24.85H138.309ZM146.999 24.85H154.181V26.334H148.777V29.05H153.887V30.52H148.777V33.502H154.181V35H146.999V24.85ZM160.344 30.716C160.232 30.7253 160.055 30.73 159.812 30.73H158.09V35H156.312V24.85H159.546C161.114 24.85 162.258 25.0647 162.976 25.494C163.704 25.9233 164.068 26.684 164.068 27.776C164.068 29.0827 163.434 29.9553 162.164 30.394L164.488 35H162.486L160.344 30.716ZM158.09 26.278V29.316H159.854C160.666 29.316 161.268 29.2087 161.66 28.994C162.052 28.77 162.248 28.3687 162.248 27.79C162.248 27.1833 162.043 26.782 161.632 26.586C161.222 26.3807 160.61 26.278 159.798 26.278H158.09ZM166.892 24.85L169.412 29.386L172.002 24.85H174.004L170.266 31.08V35H168.488V31.052L164.862 24.85H166.892Z" fill="white"/>
<path class="processText" d="M1134.91 189.502H1140.02V191H1133.13V180.85H1134.91V189.502ZM1144.64 180.85H1146.52L1150.33 191H1148.38L1147.58 188.746H1143.47L1142.68 191H1140.86L1144.64 180.85ZM1143.99 187.262H1147.05L1145.51 182.908L1143.99 187.262ZM1153.36 180.85V186.842C1153.36 187.831 1153.52 188.559 1153.86 189.026C1154.21 189.493 1154.83 189.726 1155.74 189.726C1156.62 189.726 1157.24 189.483 1157.58 188.998C1157.93 188.513 1158.1 187.775 1158.1 186.786V180.85H1159.88V186.716C1159.88 188.312 1159.56 189.455 1158.91 190.146C1158.28 190.837 1157.22 191.182 1155.74 191.182C1154.25 191.182 1153.19 190.851 1152.54 190.188C1151.9 189.525 1151.58 188.387 1151.58 186.772V180.85H1153.36ZM1168.49 191L1164.19 182.894V191H1162.47V180.85H1164.85L1169.15 188.956V180.85H1170.87V191H1168.49ZM1182.28 187.626C1182.07 188.755 1181.58 189.633 1180.81 190.258C1180.04 190.874 1179.07 191.182 1177.9 191.182C1176.43 191.182 1175.28 190.701 1174.45 189.74C1173.62 188.779 1173.21 187.495 1173.21 185.89C1173.21 184.294 1173.64 183.025 1174.49 182.082C1175.35 181.139 1176.52 180.668 1177.98 180.668C1179.12 180.668 1180.06 180.981 1180.81 181.606C1181.56 182.222 1182.05 183.095 1182.25 184.224H1180.54C1180.39 183.552 1180.09 183.034 1179.62 182.67C1179.16 182.306 1178.6 182.124 1177.92 182.124C1177.08 182.124 1176.39 182.455 1175.85 183.118C1175.31 183.781 1175.04 184.705 1175.04 185.89C1175.04 187.085 1175.31 188.023 1175.84 188.704C1176.38 189.385 1177.07 189.726 1177.91 189.726C1178.61 189.726 1179.19 189.549 1179.65 189.194C1180.11 188.83 1180.42 188.307 1180.57 187.626H1182.28ZM1192.87 180.85V191H1191.09V186.52H1186.25V191H1184.47V180.85H1186.25V185.05H1191.09V180.85H1192.87ZM1202.3 180.85H1204.18L1207.98 191H1206.04L1205.24 188.746H1201.12L1200.34 191H1198.52L1202.3 180.85ZM1201.64 187.262H1204.71L1203.17 182.908L1201.64 187.262ZM1215.72 191L1211.43 182.894V191H1209.7V180.85H1212.08L1216.38 188.956V180.85H1218.1V191H1215.72ZM1223.62 180.85C1224.47 180.85 1225.22 180.934 1225.87 181.102C1226.53 181.261 1227.12 181.527 1227.65 181.9C1228.18 182.264 1228.59 182.787 1228.87 183.468C1229.15 184.14 1229.29 184.957 1229.29 185.918C1229.29 186.879 1229.15 187.701 1228.87 188.382C1228.59 189.054 1228.18 189.577 1227.65 189.95C1227.12 190.323 1226.53 190.594 1225.87 190.762C1225.22 190.921 1224.47 191 1223.62 191H1220.85V180.85H1223.62ZM1223.54 182.278H1222.63V189.572H1223.54C1224.1 189.572 1224.58 189.53 1224.98 189.446C1225.39 189.362 1225.8 189.203 1226.2 188.97C1226.6 188.727 1226.91 188.349 1227.12 187.836C1227.34 187.323 1227.44 186.683 1227.44 185.918C1227.44 185.153 1227.34 184.518 1227.12 184.014C1226.91 183.501 1226.6 183.127 1226.2 182.894C1225.8 182.651 1225.39 182.488 1224.98 182.404C1224.58 182.32 1224.1 182.278 1223.54 182.278ZM1149.88 206.394C1149 206.217 1148.29 205.895 1147.75 205.428C1147.22 204.961 1146.95 204.327 1146.95 203.524C1146.95 202.628 1147.33 201.928 1148.1 201.424C1148.87 200.92 1149.77 200.668 1150.79 200.668C1151.83 200.668 1152.7 200.92 1153.4 201.424C1154.11 201.919 1154.57 202.675 1154.76 203.692H1153.04C1152.79 202.647 1152 202.124 1150.69 202.124C1150.21 202.124 1149.77 202.236 1149.36 202.46C1148.95 202.684 1148.74 203.02 1148.74 203.468C1148.74 204.168 1149.25 204.616 1150.25 204.812L1151.5 205.05C1152 205.153 1152.44 205.269 1152.8 205.4C1153.18 205.521 1153.53 205.699 1153.88 205.932C1154.23 206.156 1154.51 206.45 1154.69 206.814C1154.88 207.178 1154.97 207.603 1154.97 208.088C1154.97 209.049 1154.57 209.805 1153.77 210.356C1152.97 210.907 1152.02 211.182 1150.94 211.182C1149.73 211.182 1148.74 210.869 1147.97 210.244C1147.21 209.609 1146.77 208.741 1146.67 207.64H1148.42C1148.73 209.031 1149.6 209.726 1151.02 209.726C1151.65 209.726 1152.17 209.591 1152.58 209.32C1152.99 209.049 1153.19 208.676 1153.19 208.2C1153.19 207.416 1152.5 206.893 1151.11 206.632L1149.88 206.394ZM1158.73 200.85V206.842C1158.73 207.831 1158.9 208.559 1159.23 209.026C1159.58 209.493 1160.21 209.726 1161.11 209.726C1162 209.726 1162.61 209.483 1162.96 208.998C1163.3 208.513 1163.48 207.775 1163.48 206.786V200.85H1165.25V206.716C1165.25 208.312 1164.93 209.455 1164.29 210.146C1163.65 210.837 1162.59 211.182 1161.11 211.182C1159.63 211.182 1158.56 210.851 1157.92 210.188C1157.27 209.525 1156.95 208.387 1156.95 206.772V200.85H1158.73ZM1171.19 200.85C1171.69 200.85 1172.13 200.869 1172.5 200.906C1172.88 200.943 1173.26 201.027 1173.65 201.158C1174.05 201.289 1174.38 201.466 1174.63 201.69C1174.88 201.914 1175.09 202.227 1175.25 202.628C1175.42 203.02 1175.5 203.491 1175.5 204.042C1175.5 204.658 1175.39 205.181 1175.18 205.61C1174.96 206.03 1174.65 206.352 1174.24 206.576C1173.83 206.791 1173.38 206.945 1172.9 207.038C1172.42 207.122 1171.86 207.164 1171.22 207.164H1169.62V211H1167.84V200.85H1171.19ZM1169.62 202.278V205.708H1171.27C1172.06 205.708 1172.65 205.601 1173.05 205.386C1173.45 205.162 1173.65 204.719 1173.65 204.056C1173.65 203.664 1173.59 203.342 1173.46 203.09C1173.32 202.838 1173.13 202.656 1172.87 202.544C1172.61 202.432 1172.35 202.362 1172.11 202.334C1171.87 202.297 1171.56 202.278 1171.19 202.278H1169.62ZM1180.72 200.85C1181.22 200.85 1181.66 200.869 1182.04 200.906C1182.41 200.943 1182.79 201.027 1183.18 201.158C1183.58 201.289 1183.91 201.466 1184.16 201.69C1184.42 201.914 1184.62 202.227 1184.78 202.628C1184.95 203.02 1185.03 203.491 1185.03 204.042C1185.03 204.658 1184.92 205.181 1184.71 205.61C1184.49 206.03 1184.18 206.352 1183.77 206.576C1183.36 206.791 1182.91 206.945 1182.43 207.038C1181.95 207.122 1181.39 207.164 1180.75 207.164H1179.15V211H1177.37V200.85H1180.72ZM1179.15 202.278V205.708H1180.8C1181.59 205.708 1182.18 205.601 1182.58 205.386C1182.98 205.162 1183.18 204.719 1183.18 204.056C1183.18 203.664 1183.12 203.342 1182.99 203.09C1182.86 202.838 1182.66 202.656 1182.4 202.544C1182.14 202.432 1181.89 202.362 1181.64 202.334C1181.4 202.297 1181.09 202.278 1180.72 202.278H1179.15ZM1194.87 209.74C1193.99 210.701 1192.82 211.182 1191.34 211.182C1189.87 211.182 1188.69 210.701 1187.82 209.74C1186.94 208.769 1186.5 207.495 1186.5 205.918C1186.5 204.341 1186.94 203.071 1187.82 202.11C1188.69 201.149 1189.87 200.668 1191.34 200.668C1192.82 200.668 1193.99 201.149 1194.87 202.11C1195.75 203.071 1196.19 204.341 1196.19 205.918C1196.19 207.495 1195.75 208.769 1194.87 209.74ZM1189.17 208.718C1189.74 209.39 1190.47 209.726 1191.34 209.726C1192.22 209.726 1192.94 209.39 1193.5 208.718C1194.07 208.046 1194.35 207.113 1194.35 205.918C1194.35 204.723 1194.07 203.795 1193.5 203.132C1192.94 202.46 1192.22 202.124 1191.34 202.124C1190.47 202.124 1189.74 202.46 1189.17 203.132C1188.61 203.795 1188.33 204.723 1188.33 205.918C1188.33 207.113 1188.61 208.046 1189.17 208.718ZM1202.56 206.716C1202.45 206.725 1202.27 206.73 1202.03 206.73H1200.31V211H1198.53V200.85H1201.76C1203.33 200.85 1204.47 201.065 1205.19 201.494C1205.92 201.923 1206.29 202.684 1206.29 203.776C1206.29 205.083 1205.65 205.955 1204.38 206.394L1206.71 211H1204.7L1202.56 206.716ZM1200.31 202.278V205.316H1202.07C1202.88 205.316 1203.49 205.209 1203.88 204.994C1204.27 204.77 1204.47 204.369 1204.47 203.79C1204.47 203.183 1204.26 202.782 1203.85 202.586C1203.44 202.381 1202.83 202.278 1202.02 202.278H1200.31ZM1210.66 202.334H1207.46V200.85H1215.63V202.334H1212.43V211H1210.66V202.334Z" fill="white"/>
<path class="processText" d="M350.42 191L347.844 182.782V191H346.108V180.85H348.866L351.33 188.942L353.78 180.85H356.538V191H354.802V182.782L352.226 191H350.42ZM367.242 189.74C366.365 190.701 365.189 191.182 363.714 191.182C362.24 191.182 361.064 190.701 360.186 189.74C359.309 188.769 358.87 187.495 358.87 185.918C358.87 184.341 359.309 183.071 360.186 182.11C361.064 181.149 362.24 180.668 363.714 180.668C365.189 180.668 366.365 181.149 367.242 182.11C368.12 183.071 368.558 184.341 368.558 185.918C368.558 187.495 368.12 188.769 367.242 189.74ZM361.544 188.718C362.114 189.39 362.837 189.726 363.714 189.726C364.592 189.726 365.31 189.39 365.87 188.718C366.44 188.046 366.724 187.113 366.724 185.918C366.724 184.723 366.44 183.795 365.87 183.132C365.31 182.46 364.592 182.124 363.714 182.124C362.837 182.124 362.114 182.46 361.544 183.132C360.984 183.795 360.704 184.723 360.704 185.918C360.704 187.113 360.984 188.046 361.544 188.718ZM378.989 189.74C378.112 190.701 376.936 191.182 375.461 191.182C373.987 191.182 372.811 190.701 371.933 189.74C371.056 188.769 370.617 187.495 370.617 185.918C370.617 184.341 371.056 183.071 371.933 182.11C372.811 181.149 373.987 180.668 375.461 180.668C376.936 180.668 378.112 181.149 378.989 182.11C379.867 183.071 380.305 184.341 380.305 185.918C380.305 187.495 379.867 188.769 378.989 189.74ZM373.291 188.718C373.861 189.39 374.584 189.726 375.461 189.726C376.339 189.726 377.057 189.39 377.617 188.718C378.187 188.046 378.471 187.113 378.471 185.918C378.471 184.723 378.187 183.795 377.617 183.132C377.057 182.46 376.339 182.124 375.461 182.124C374.584 182.124 373.861 182.46 373.291 183.132C372.731 183.795 372.451 184.723 372.451 185.918C372.451 187.113 372.731 188.046 373.291 188.718ZM385.419 180.85C386.269 180.85 387.02 180.934 387.673 181.102C388.327 181.261 388.919 181.527 389.451 181.9C389.983 182.264 390.389 182.787 390.669 183.468C390.949 184.14 391.089 184.957 391.089 185.918C391.089 186.879 390.949 187.701 390.669 188.382C390.389 189.054 389.983 189.577 389.451 189.95C388.919 190.323 388.327 190.594 387.673 190.762C387.02 190.921 386.269 191 385.419 191H382.647V180.85H385.419ZM385.335 182.278H384.425V189.572H385.335C385.895 189.572 386.376 189.53 386.777 189.446C387.188 189.362 387.594 189.203 387.995 188.97C388.397 188.727 388.705 188.349 388.919 187.836C389.134 187.323 389.241 186.683 389.241 185.918C389.241 185.153 389.134 184.518 388.919 184.014C388.705 183.501 388.397 183.127 387.995 182.894C387.594 182.651 387.188 182.488 386.777 182.404C386.376 182.32 385.895 182.278 385.335 182.278ZM393.41 180.85H397.232C399.668 180.85 400.886 181.713 400.886 183.44C400.886 183.897 400.774 184.327 400.55 184.728C400.335 185.129 400.069 185.423 399.752 185.61C400.769 186.067 401.278 186.861 401.278 187.99C401.278 189.017 400.928 189.777 400.228 190.272C399.528 190.757 398.613 191 397.484 191H393.41V180.85ZM395.188 185.092H397.4C398.52 185.092 399.08 184.607 399.08 183.636C399.08 183.197 398.926 182.861 398.618 182.628C398.319 182.395 397.913 182.278 397.4 182.278H395.188V185.092ZM395.188 189.572H397.554C398.814 189.572 399.444 189.045 399.444 187.99C399.444 186.963 398.781 186.45 397.456 186.45H395.188V189.572ZM411.414 189.74C410.536 190.701 409.36 191.182 407.886 191.182C406.411 191.182 405.235 190.701 404.358 189.74C403.48 188.769 403.042 187.495 403.042 185.918C403.042 184.341 403.48 183.071 404.358 182.11C405.235 181.149 406.411 180.668 407.886 180.668C409.36 180.668 410.536 181.149 411.414 182.11C412.291 183.071 412.73 184.341 412.73 185.918C412.73 187.495 412.291 188.769 411.414 189.74ZM405.716 188.718C406.285 189.39 407.008 189.726 407.886 189.726C408.763 189.726 409.482 189.39 410.042 188.718C410.611 188.046 410.896 187.113 410.896 185.918C410.896 184.723 410.611 183.795 410.042 183.132C409.482 182.46 408.763 182.124 407.886 182.124C407.008 182.124 406.285 182.46 405.716 183.132C405.156 183.795 404.876 184.723 404.876 185.918C404.876 187.113 405.156 188.046 405.716 188.718ZM417.269 180.85H419.145L422.953 191H421.007L420.209 188.746H416.093L415.309 191H413.489L417.269 180.85ZM416.611 187.262H419.677L418.137 182.908L416.611 187.262ZM428.704 186.716C428.592 186.725 428.414 186.73 428.172 186.73H426.45V191H424.672V180.85H427.906C429.474 180.85 430.617 181.065 431.336 181.494C432.064 181.923 432.428 182.684 432.428 183.776C432.428 185.083 431.793 185.955 430.524 186.394L432.848 191H430.846L428.704 186.716ZM426.45 182.278V185.316H428.214C429.026 185.316 429.628 185.209 430.02 184.994C430.412 184.77 430.608 184.369 430.608 183.79C430.608 183.183 430.402 182.782 429.992 182.586C429.581 182.381 428.97 182.278 428.158 182.278H426.45ZM437.646 180.85C438.495 180.85 439.246 180.934 439.9 181.102C440.553 181.261 441.146 181.527 441.678 181.9C442.21 182.264 442.616 182.787 442.896 183.468C443.176 184.14 443.316 184.957 443.316 185.918C443.316 186.879 443.176 187.701 442.896 188.382C442.616 189.054 442.21 189.577 441.678 189.95C441.146 190.323 440.553 190.594 439.9 190.762C439.246 190.921 438.495 191 437.646 191H434.874V180.85H437.646ZM437.562 182.278H436.652V189.572H437.562C438.122 189.572 438.602 189.53 439.004 189.446C439.414 189.362 439.82 189.203 440.222 188.97C440.623 188.727 440.931 188.349 441.146 187.836C441.36 187.323 441.468 186.683 441.468 185.918C441.468 185.153 441.36 184.518 441.146 184.014C440.931 183.501 440.623 183.127 440.222 182.894C439.82 182.651 439.414 182.488 439.004 182.404C438.602 182.32 438.122 182.278 437.562 182.278ZM366.615 207.626C366.41 208.755 365.92 209.633 365.145 210.258C364.38 210.874 363.409 211.182 362.233 211.182C360.768 211.182 359.62 210.701 358.789 209.74C357.958 208.779 357.543 207.495 357.543 205.89C357.543 204.294 357.972 203.025 358.831 202.082C359.69 201.139 360.852 200.668 362.317 200.668C363.456 200.668 364.398 200.981 365.145 201.606C365.901 202.222 366.382 203.095 366.587 204.224H364.879C364.73 203.552 364.422 203.034 363.955 202.67C363.498 202.306 362.933 202.124 362.261 202.124C361.421 202.124 360.73 202.455 360.189 203.118C359.648 203.781 359.377 204.705 359.377 205.89C359.377 207.085 359.643 208.023 360.175 208.704C360.716 209.385 361.407 209.726 362.247 209.726C362.947 209.726 363.526 209.549 363.983 209.194C364.45 208.83 364.758 208.307 364.907 207.626H366.615ZM372.839 206.716C372.727 206.725 372.55 206.73 372.307 206.73H370.585V211H368.807V200.85H372.041C373.609 200.85 374.752 201.065 375.471 201.494C376.199 201.923 376.563 202.684 376.563 203.776C376.563 205.083 375.928 205.955 374.659 206.394L376.983 211H374.981L372.839 206.716ZM370.585 202.278V205.316H372.349C373.161 205.316 373.763 205.209 374.155 204.994C374.547 204.77 374.743 204.369 374.743 203.79C374.743 203.183 374.538 202.782 374.127 202.586C373.716 202.381 373.105 202.278 372.293 202.278H370.585ZM379.009 200.85H386.191V202.334H380.787V205.05H385.897V206.52H380.787V209.502H386.191V211H379.009V200.85ZM391.08 200.85H392.956L396.764 211H394.818L394.02 208.746H389.904L389.12 211H387.3L391.08 200.85ZM390.422 207.262H393.488L391.948 202.908L390.422 207.262ZM399.739 202.334H396.547V200.85H404.709V202.334H401.517V211H399.739V202.334ZM408.276 211H406.498V200.85H408.276V211ZM418.992 209.74C418.115 210.701 416.939 211.182 415.464 211.182C413.989 211.182 412.813 210.701 411.936 209.74C411.059 208.769 410.62 207.495 410.62 205.918C410.62 204.341 411.059 203.071 411.936 202.11C412.813 201.149 413.989 200.668 415.464 200.668C416.939 200.668 418.115 201.149 418.992 202.11C419.869 203.071 420.308 204.341 420.308 205.918C420.308 207.495 419.869 208.769 418.992 209.74ZM413.294 208.718C413.863 209.39 414.587 209.726 415.464 209.726C416.341 209.726 417.06 209.39 417.62 208.718C418.189 208.046 418.474 207.113 418.474 205.918C418.474 204.723 418.189 203.795 417.62 203.132C417.06 202.46 416.341 202.124 415.464 202.124C414.587 202.124 413.863 202.46 413.294 203.132C412.734 203.795 412.454 204.723 412.454 205.918C412.454 207.113 412.734 208.046 413.294 208.718ZM428.67 211L424.372 202.894V211H422.65V200.85H425.03L429.328 208.956V200.85H431.05V211H428.67Z" fill="white"/>
<path class="processText" d="M634.785 187.626C634.579 188.755 634.089 189.633 633.315 190.258C632.549 190.874 631.579 191.182 630.403 191.182C628.937 191.182 627.789 190.701 626.959 189.74C626.128 188.779 625.713 187.495 625.713 185.89C625.713 184.294 626.142 183.025 627.001 182.082C627.859 181.139 629.021 180.668 630.487 180.668C631.625 180.668 632.568 180.981 633.315 181.606C634.071 182.222 634.551 183.095 634.757 184.224H633.049C632.899 183.552 632.591 183.034 632.125 182.67C631.667 182.306 631.103 182.124 630.431 182.124C629.591 182.124 628.9 182.455 628.359 183.118C627.817 183.781 627.547 184.705 627.547 185.89C627.547 187.085 627.813 188.023 628.345 188.704C628.886 189.385 629.577 189.726 630.417 189.726C631.117 189.726 631.695 189.549 632.153 189.194C632.619 188.83 632.927 188.307 633.077 187.626H634.785ZM638.601 180.85V186.842C638.601 187.831 638.769 188.559 639.105 189.026C639.45 189.493 640.076 189.726 640.981 189.726C641.868 189.726 642.484 189.483 642.829 188.998C643.174 188.513 643.347 187.775 643.347 186.786V180.85H645.125V186.716C645.125 188.312 644.803 189.455 644.159 190.146C643.524 190.837 642.465 191.182 640.981 191.182C639.497 191.182 638.433 190.851 637.789 190.188C637.145 189.525 636.823 188.387 636.823 186.772V180.85H638.601ZM650.26 186.394C649.383 186.217 648.673 185.895 648.132 185.428C647.6 184.961 647.334 184.327 647.334 183.524C647.334 182.628 647.717 181.928 648.482 181.424C649.257 180.92 650.153 180.668 651.17 180.668C652.215 180.668 653.088 180.92 653.788 181.424C654.497 181.919 654.95 182.675 655.146 183.692H653.424C653.172 182.647 652.388 182.124 651.072 182.124C650.596 182.124 650.153 182.236 649.742 182.46C649.331 182.684 649.126 183.02 649.126 183.468C649.126 184.168 649.63 184.616 650.638 184.812L651.884 185.05C652.388 185.153 652.822 185.269 653.186 185.4C653.559 185.521 653.919 185.699 654.264 185.932C654.619 186.156 654.889 186.45 655.076 186.814C655.263 187.178 655.356 187.603 655.356 188.088C655.356 189.049 654.955 189.805 654.152 190.356C653.349 190.907 652.407 191.182 651.324 191.182C650.111 191.182 649.121 190.869 648.356 190.244C647.591 189.609 647.157 188.741 647.054 187.64H648.804C649.112 189.031 649.98 189.726 651.408 189.726C652.033 189.726 652.551 189.591 652.962 189.32C653.373 189.049 653.578 188.676 653.578 188.2C653.578 187.416 652.883 186.893 651.492 186.632L650.26 186.394ZM659.566 182.334H656.374V180.85H664.536V182.334H661.344V191H659.566V182.334ZM673.799 189.74C672.921 190.701 671.745 191.182 670.271 191.182C668.796 191.182 667.62 190.701 666.743 189.74C665.865 188.769 665.427 187.495 665.427 185.918C665.427 184.341 665.865 183.071 666.743 182.11C667.62 181.149 668.796 180.668 670.271 180.668C671.745 180.668 672.921 181.149 673.799 182.11C674.676 183.071 675.115 184.341 675.115 185.918C675.115 187.495 674.676 188.769 673.799 189.74ZM668.101 188.718C668.67 189.39 669.393 189.726 670.271 189.726C671.148 189.726 671.867 189.39 672.427 188.718C672.996 188.046 673.281 187.113 673.281 185.918C673.281 184.723 672.996 183.795 672.427 183.132C671.867 182.46 671.148 182.124 670.271 182.124C669.393 182.124 668.67 182.46 668.101 183.132C667.541 183.795 667.261 184.723 667.261 185.918C667.261 187.113 667.541 188.046 668.101 188.718ZM681.769 191L679.193 182.782V191H677.457V180.85H680.215L682.679 188.942L685.129 180.85H687.887V191H686.151V182.782L683.575 191H681.769ZM632.685 200.85C633.534 200.85 634.285 200.934 634.939 201.102C635.592 201.261 636.185 201.527 636.717 201.9C637.249 202.264 637.655 202.787 637.935 203.468C638.215 204.14 638.355 204.957 638.355 205.918C638.355 206.879 638.215 207.701 637.935 208.382C637.655 209.054 637.249 209.577 636.717 209.95C636.185 210.323 635.592 210.594 634.939 210.762C634.285 210.921 633.534 211 632.685 211H629.913V200.85H632.685ZM632.601 202.278H631.691V209.572H632.601C633.161 209.572 633.641 209.53 634.043 209.446C634.453 209.362 634.859 209.203 635.261 208.97C635.662 208.727 635.97 208.349 636.185 207.836C636.399 207.323 636.507 206.683 636.507 205.918C636.507 205.153 636.399 204.518 636.185 204.014C635.97 203.501 635.662 203.127 635.261 202.894C634.859 202.651 634.453 202.488 634.043 202.404C633.641 202.32 633.161 202.278 632.601 202.278ZM640.675 200.85H647.857V202.334H642.453V205.05H647.563V206.52H642.453V209.502H647.857V211H640.675V200.85ZM652.536 206.394C651.659 206.217 650.95 205.895 650.408 205.428C649.876 204.961 649.61 204.327 649.61 203.524C649.61 202.628 649.993 201.928 650.758 201.424C651.533 200.92 652.429 200.668 653.446 200.668C654.492 200.668 655.364 200.92 656.064 201.424C656.774 201.919 657.226 202.675 657.422 203.692H655.7C655.448 202.647 654.664 202.124 653.348 202.124C652.872 202.124 652.429 202.236 652.018 202.46C651.608 202.684 651.402 203.02 651.402 203.468C651.402 204.168 651.906 204.616 652.914 204.812L654.16 205.05C654.664 205.153 655.098 205.269 655.462 205.4C655.836 205.521 656.195 205.699 656.54 205.932C656.895 206.156 657.166 206.45 657.352 206.814C657.539 207.178 657.632 207.603 657.632 208.088C657.632 209.049 657.231 209.805 656.428 210.356C655.626 210.907 654.683 211.182 653.6 211.182C652.387 211.182 651.398 210.869 650.632 210.244C649.867 209.609 649.433 208.741 649.33 207.64H651.08C651.388 209.031 652.256 209.726 653.684 209.726C654.31 209.726 654.828 209.591 655.238 209.32C655.649 209.049 655.854 208.676 655.854 208.2C655.854 207.416 655.159 206.893 653.768 206.632L652.536 206.394ZM661.545 211H659.767V200.85H661.545V211ZM673.045 204.07H671.351C671.183 203.445 670.87 202.964 670.413 202.628C669.955 202.292 669.391 202.124 668.719 202.124C667.823 202.124 667.099 202.451 666.549 203.104C665.998 203.757 665.723 204.686 665.723 205.89C665.723 207.103 665.989 208.046 666.521 208.718C667.062 209.39 667.79 209.726 668.705 209.726C669.031 209.726 669.344 209.689 669.643 209.614C669.941 209.53 670.226 209.404 670.497 209.236C670.777 209.068 671.001 208.825 671.169 208.508C671.337 208.191 671.421 207.817 671.421 207.388V207.192H668.831V205.694H673.073V211H671.673L671.617 209.782C670.991 210.715 669.955 211.182 668.509 211.182C667.081 211.182 665.951 210.701 665.121 209.74C664.299 208.779 663.889 207.495 663.889 205.89C663.889 204.303 664.327 203.039 665.205 202.096C666.082 201.144 667.267 200.668 668.761 200.668C669.899 200.668 670.847 200.967 671.603 201.564C672.359 202.161 672.839 202.997 673.045 204.07ZM681.706 211L677.408 202.894V211H675.686V200.85H678.066L682.364 208.956V200.85H684.086V211H681.706Z" fill="white"/>
<path class="processText" d="M867.813 4.85C868.662 4.85 869.413 4.934 870.067 5.102C870.72 5.26067 871.313 5.52667 871.845 5.9C872.377 6.264 872.783 6.78667 873.063 7.468C873.343 8.14 873.483 8.95667 873.483 9.918C873.483 10.8793 873.343 11.7007 873.063 12.382C872.783 13.054 872.377 13.5767 871.845 13.95C871.313 14.3233 870.72 14.594 870.067 14.762C869.413 14.9207 868.662 15 867.813 15H865.041V4.85H867.813ZM867.729 6.278H866.819V13.572H867.729C868.289 13.572 868.769 13.53 869.171 13.446C869.581 13.362 869.987 13.2033 870.389 12.97C870.79 12.7273 871.098 12.3493 871.313 11.836C871.527 11.3227 871.635 10.6833 871.635 9.918C871.635 9.15267 871.527 8.518 871.313 8.014C871.098 7.50067 870.79 7.12733 870.389 6.894C869.987 6.65133 869.581 6.488 869.171 6.404C868.769 6.32 868.289 6.278 867.729 6.278ZM875.803 4.85H882.985V6.334H877.581V9.05H882.691V10.52H877.581V13.502H882.985V15H875.803V4.85ZM886.04 4.85L888.616 12.9L891.122 4.85H892.998L889.526 15H887.622L884.108 4.85H886.04ZM894.73 4.85H901.912V6.334H896.508V9.05H901.618V10.52H896.508V13.502H901.912V15H894.73V4.85ZM905.822 13.502H910.932V15H904.044V4.85H905.822V13.502ZM919.887 13.74C919.01 14.7013 917.834 15.182 916.359 15.182C914.885 15.182 913.709 14.7013 912.831 13.74C911.954 12.7693 911.515 11.4953 911.515 9.918C911.515 8.34067 911.954 7.07133 912.831 6.11C913.709 5.14867 914.885 4.668 916.359 4.668C917.834 4.668 919.01 5.14867 919.887 6.11C920.765 7.07133 921.203 8.34067 921.203 9.918C921.203 11.4953 920.765 12.7693 919.887 13.74ZM914.189 12.718C914.759 13.39 915.482 13.726 916.359 13.726C917.237 13.726 917.955 13.39 918.515 12.718C919.085 12.046 919.369 11.1127 919.369 9.918C919.369 8.72333 919.085 7.79467 918.515 7.132C917.955 6.46 917.237 6.124 916.359 6.124C915.482 6.124 914.759 6.46 914.189 7.132C913.629 7.79467 913.349 8.72333 913.349 9.918C913.349 11.1127 913.629 12.046 914.189 12.718ZM926.891 4.85C927.395 4.85 927.834 4.86867 928.207 4.906C928.581 4.94333 928.963 5.02733 929.355 5.158C929.757 5.28867 930.083 5.466 930.335 5.69C930.587 5.914 930.793 6.22667 930.951 6.628C931.119 7.02 931.203 7.49133 931.203 8.042C931.203 8.658 931.096 9.18067 930.881 9.61C930.667 10.03 930.354 10.352 929.943 10.576C929.533 10.7907 929.085 10.9447 928.599 11.038C928.123 11.122 927.563 11.164 926.919 11.164H925.323V15H923.545V4.85H926.891ZM925.323 6.278V9.708H926.975C927.759 9.708 928.352 9.60067 928.753 9.386C929.155 9.162 929.355 8.71867 929.355 8.056C929.355 7.664 929.29 7.342 929.159 7.09C929.029 6.838 928.833 6.656 928.571 6.544C928.31 6.432 928.058 6.362 927.815 6.334C927.573 6.29667 927.265 6.278 926.891 6.278H925.323ZM937.389 15L934.813 6.782V15H933.077V4.85H935.835L938.299 12.942L940.749 4.85H943.507V15H941.771V6.782L939.195 15H937.389ZM946.246 4.85H953.428V6.334H948.024V9.05H953.134V10.52H948.024V13.502H953.428V15H946.246V4.85ZM961.579 15L957.281 6.894V15H955.559V4.85H957.939L962.237 12.956V4.85H963.959V15H961.579ZM968.945 6.334H965.753V4.85H973.915V6.334H970.723V15H968.945V6.334ZM873.137 24.85H875.013L878.821 35H876.875L876.077 32.746H871.961L871.177 35H869.357L873.137 24.85ZM872.479 31.262H875.545L874.005 26.908L872.479 31.262ZM886.56 35L882.262 26.894V35H880.54V24.85H882.92L887.218 32.956V24.85H888.94V35H886.56ZM894.458 24.85C895.307 24.85 896.058 24.934 896.712 25.102C897.365 25.2607 897.958 25.5267 898.49 25.9C899.022 26.264 899.428 26.7867 899.708 27.468C899.988 28.14 900.128 28.9567 900.128 29.918C900.128 30.8793 899.988 31.7007 899.708 32.382C899.428 33.054 899.022 33.5767 898.49 33.95C897.958 34.3233 897.365 34.594 896.712 34.762C896.058 34.9207 895.307 35 894.458 35H891.686V24.85H894.458ZM894.374 26.278H893.464V33.572H894.374C894.934 33.572 895.414 33.53 895.816 33.446C896.226 33.362 896.632 33.2033 897.034 32.97C897.435 32.7273 897.743 32.3493 897.958 31.836C898.172 31.3227 898.28 30.6833 898.28 29.918C898.28 29.1527 898.172 28.518 897.958 28.014C897.743 27.5007 897.435 27.1273 897.034 26.894C896.632 26.6513 896.226 26.488 895.816 26.404C895.414 26.32 894.934 26.278 894.374 26.278ZM908.615 26.334H905.423V24.85H913.585V26.334H910.393V35H908.615V26.334ZM915.374 24.85H922.556V26.334H917.152V29.05H922.262V30.52H917.152V33.502H922.556V35H915.374V24.85ZM927.235 30.394C926.358 30.2167 925.648 29.8947 925.107 29.428C924.575 28.9613 924.309 28.3267 924.309 27.524C924.309 26.628 924.692 25.928 925.457 25.424C926.232 24.92 927.128 24.668 928.145 24.668C929.19 24.668 930.063 24.92 930.763 25.424C931.472 25.9187 931.925 26.6747 932.121 27.692H930.399C930.147 26.6467 929.363 26.124 928.047 26.124C927.571 26.124 927.128 26.236 926.717 26.46C926.306 26.684 926.101 27.02 926.101 27.468C926.101 28.168 926.605 28.616 927.613 28.812L928.859 29.05C929.363 29.1527 929.797 29.2693 930.161 29.4C930.534 29.5213 930.894 29.6987 931.239 29.932C931.594 30.156 931.864 30.45 932.051 30.814C932.238 31.178 932.331 31.6027 932.331 32.088C932.331 33.0493 931.93 33.8053 931.127 34.356C930.324 34.9067 929.382 35.182 928.299 35.182C927.086 35.182 926.096 34.8693 925.331 34.244C924.566 33.6093 924.132 32.7413 924.029 31.64H925.779C926.087 33.0307 926.955 33.726 928.383 33.726C929.008 33.726 929.526 33.5907 929.937 33.32C930.348 33.0493 930.553 32.676 930.553 32.2C930.553 31.416 929.858 30.8933 928.467 30.632L927.235 30.394ZM936.541 26.334H933.349V24.85H941.511V26.334H938.319V35H936.541V26.334ZM945.078 35H943.3V24.85H945.078V35ZM953.848 35L949.55 26.894V35H947.828V24.85H950.208L954.506 32.956V24.85H956.228V35H953.848ZM967.723 28.07H966.029C965.861 27.4447 965.549 26.964 965.091 26.628C964.634 26.292 964.069 26.124 963.397 26.124C962.501 26.124 961.778 26.4507 961.227 27.104C960.677 27.7573 960.401 28.686 960.401 29.89C960.401 31.1033 960.667 32.046 961.199 32.718C961.741 33.39 962.469 33.726 963.383 33.726C963.71 33.726 964.023 33.6887 964.321 33.614C964.62 33.53 964.905 33.404 965.175 33.236C965.455 33.068 965.679 32.8253 965.847 32.508C966.015 32.1907 966.099 31.8173 966.099 31.388V31.192H963.509V29.694H967.751V35H966.351L966.295 33.782C965.67 34.7153 964.634 35.182 963.187 35.182C961.759 35.182 960.63 34.7013 959.799 33.74C958.978 32.7787 958.567 31.4953 958.567 29.89C958.567 28.3033 959.006 27.0387 959.883 26.096C960.761 25.144 961.946 24.668 963.439 24.668C964.578 24.668 965.525 24.9667 966.281 25.564C967.037 26.1613 967.518 26.9967 967.723 28.07Z" fill="white"/>
<defs>
<linearGradient id="paint0_linear_32256_84517" x1="1312" y1="108.002" x2="250.685" y2="623.807" gradientUnits="userSpaceOnUse">
<stop stop-color="#F2513A"/>
<stop offset="0.210798" stop-color="#D9E58E"/>
<stop offset="0.406844" stop-color="#94EEA8"/>
<stop offset="0.619313" stop-color="#71D0EF"/>
<stop offset="0.805095" stop-color="#5C96EC"/>
<stop offset="1" stop-color="#8CA1B5"/>
</linearGradient>
</defs>
</svg>
